<svg width="120" height="120" viewBox="0 0 120 120" fill="none" xmlns="http://www.w3.org/2000/svg">
  <!-- Background Circle -->
  <circle cx="60" cy="60" r="60" fill="#2563EB"/>
  
  <!-- Shield Shape -->
  <path d="M60 20L40 30V50C40 65 50 78 60 85C70 78 80 65 80 50V30L60 20Z" fill="white"/>
  
  <!-- Inner Shield Details -->
  <path d="M60 28L46 35V50C46 61 53 71 60 76C67 71 74 61 74 50V35L60 28Z" fill="#2563EB"/>
  
  <!-- Checkmark -->
  <path d="M52 50L58 56L68 46" stroke="white" stroke-width="3" stroke-linecap="round" stroke-linejoin="round"/>
  
  <!-- AI Circuit Pattern -->
  <circle cx="45" cy="95" r="2" fill="white" opacity="0.7"/>
  <circle cx="55" cy="95" r="2" fill="white" opacity="0.7"/>
  <circle cx="65" cy="95" r="2" fill="white" opacity="0.7"/>
  <circle cx="75" cy="95" r="2" fill="white" opacity="0.7"/>
  <line x1="45" y1="95" x2="75" y2="95" stroke="white" stroke-width="1" opacity="0.7"/>
  
  <!-- Company Initial -->
  <text x="60" y="110" text-anchor="middle" fill="white" font-family="Arial, sans-serif" font-size="12" font-weight="bold">CS</text>
</svg>